<?xml version="1.0" standalone="no"?>
<!DOCTYPE svg PUBLIC "-//W3C//DTD SVG 20010904//EN"
 "http://www.w3.org/TR/2001/REC-SVG-20010904/DTD/svg10.dtd">
<svg version="1.0" xmlns="http://www.w3.org/2000/svg"
 width="1067.000000pt" height="1067.000000pt" viewBox="0 0 1067.000000 1067.000000"
 preserveAspectRatio="xMidYMid meet">

<g transform="translate(0.000000,1067.000000) scale(0.100000,-0.100000)"
fill="#000000" stroke="none">
<path d="M5469 8558 l0 -1523 -32 40 c-71 91 -236 244 -327 304 -355 236 -784
351 -1311 352 -382 0 -681 -46 -1021 -157 -925 -302 -1669 -1001 -2047 -1922
-124 -303 -201 -609 -243 -967 -17 -146 -17 -674 0 -820 68 -581 241 -1070
545 -1543 26 -40 47 -75 47 -78 0 -11 91 -135 168 -228 457 -554 1109 -954
1808 -1111 480 -108 969 -108 1389 0 541 140 1052 421 1575 869 36 31 68 56
71 56 4 0 149 -198 324 -440 l317 -440 211 0 210 0 -6 1313 c-4 721 -7 2776
-7 4565 l0 3252 -835 0 -835 0 -1 -1522z m-1424 -2524 c176 -28 362 -97 530
-199 308 -186 551 -456 710 -787 245 -512 242 -1050 -11 -1564 -153 -313 -412
-600 -664 -738 -328 -180 -469 -224 -750 -233 -183 -6 -286 4 -435 42 -555
141 -982 552 -1175 1134 -110 329 -125 706 -44 1075 49 223 170 491 303 666
348 463 940 696 1536 604z"/>
<path d="M7790 6777 c0 -1817 -3 -3871 -7 -4565 l-6 -1262 848 0 848 0 -6
1013 c-4 556 -7 2611 -7 4565 l0 3552 -835 0 -835 0 0 -3303z"/>
</g>
</svg>
